<?xml version="1.0" encoding="UTF-8" standalone="no"?>
<!-- Created with Inkscape (http://www.inkscape.org/) -->

<svg
   xmlns:dc="http://purl.org/dc/elements/1.1/"
   xmlns:cc="http://creativecommons.org/ns#"
   xmlns:rdf="http://www.w3.org/1999/02/22-rdf-syntax-ns#"
   xmlns:svg="http://www.w3.org/2000/svg"
   xmlns="http://www.w3.org/2000/svg"
   xmlns:xlink="http://www.w3.org/1999/xlink"
   xmlns:sodipodi="http://sodipodi.sourceforge.net/DTD/sodipodi-0.dtd"
   xmlns:inkscape="http://www.inkscape.org/namespaces/inkscape"
   width="1052.3622"
   height="744.09448"
   id="svg2"
   version="1.1"
   inkscape:version="0.48.0 r9654"
   sodipodi:docname="start_stop.svg">
  <defs
     id="defs4">
    <linearGradient
       inkscape:collect="always"
       id="linearGradient3811">
      <stop
         style="stop-color:#1a1a1a;stop-opacity:1;"
         offset="0"
         id="stop3813" />
      <stop
         style="stop-color:#1a1a1a;stop-opacity:0;"
         offset="1"
         id="stop3815" />
    </linearGradient>
    <linearGradient
       inkscape:collect="always"
       id="linearGradient3887">
      <stop
         style="stop-color:#ff0000;stop-opacity:1;"
         offset="0"
         id="stop3889" />
      <stop
         style="stop-color:#ff0000;stop-opacity:0;"
         offset="1"
         id="stop3891" />
    </linearGradient>
    <linearGradient
       inkscape:collect="always"
       id="linearGradient3857">
      <stop
         style="stop-color:#00ff00;stop-opacity:1;"
         offset="0"
         id="stop3859" />
      <stop
         style="stop-color:#00ff00;stop-opacity:0;"
         offset="1"
         id="stop3861" />
    </linearGradient>
    <filter
       inkscape:collect="always"
       id="filter3843"
       x="-0.099315153"
       width="1.1986303"
       y="-0.15156775"
       height="1.3031355">
      <feGaussianBlur
         inkscape:collect="always"
         stdDeviation="9.1344602"
         id="feGaussianBlur3845" />
    </filter>
    <linearGradient
       inkscape:collect="always"
       xlink:href="#linearGradient3857"
       id="linearGradient3863"
       x1="332.46268"
       y1="509.60159"
       x2="47.993301"
       y2="510.47418"
       gradientUnits="userSpaceOnUse"
       gradientTransform="translate(-34.904218,-80.279701)" />
    <filter
       inkscape:collect="always"
       id="filter3883"
       x="-0.12"
       width="1.24"
       y="-0.12"
       height="1.24">
      <feGaussianBlur
         inkscape:collect="always"
         stdDeviation="9.5633185"
         id="feGaussianBlur3885" />
    </filter>
    <linearGradient
       inkscape:collect="always"
       xlink:href="#linearGradient3887"
       id="linearGradient3893"
       x1="574.17438"
       y1="536.6524"
       x2="355.15042"
       y2="753.05847"
       gradientUnits="userSpaceOnUse"
       gradientTransform="translate(-31.413796,-153.57856)" />
    <linearGradient
       inkscape:collect="always"
       xlink:href="#linearGradient3857-7"
       id="linearGradient3863-1"
       x1="332.46268"
       y1="509.60159"
       x2="47.993301"
       y2="510.47418"
       gradientUnits="userSpaceOnUse"
       gradientTransform="translate(-34.904218,-80.279701)" />
    <linearGradient
       inkscape:collect="always"
       id="linearGradient3857-7">
      <stop
         style="stop-color:#00ff00;stop-opacity:1;"
         offset="0"
         id="stop3859-4" />
      <stop
         style="stop-color:#00ff00;stop-opacity:0;"
         offset="1"
         id="stop3861-0" />
    </linearGradient>
    <linearGradient
       inkscape:collect="always"
       xlink:href="#linearGradient3811"
       id="linearGradient3817"
       x1="234.73087"
       y1="657.07196"
       x2="-11.343872"
       y2="424.08624"
       gradientUnits="userSpaceOnUse"
       gradientTransform="translate(153.57857,72.42625)" />
    <linearGradient
       inkscape:collect="always"
       xlink:href="#linearGradient3811-8"
       id="linearGradient3817-3"
       x1="234.73087"
       y1="657.07196"
       x2="-11.343872"
       y2="424.08624"
       gradientUnits="userSpaceOnUse" />
    <linearGradient
       inkscape:collect="always"
       id="linearGradient3811-8">
      <stop
         style="stop-color:#1a1a1a;stop-opacity:1;"
         offset="0"
         id="stop3813-7" />
      <stop
         style="stop-color:#1a1a1a;stop-opacity:0;"
         offset="1"
         id="stop3815-4" />
    </linearGradient>
    <filter
       inkscape:collect="always"
       id="filter3853"
       x="-0.099315152"
       width="1.1986303"
       y="-0.15156775"
       height="1.3031355">
      <feGaussianBlur
         inkscape:collect="always"
         stdDeviation="9.1344603"
         id="feGaussianBlur3855" />
    </filter>
    <linearGradient
       inkscape:collect="always"
       xlink:href="#linearGradient3811"
       id="linearGradient3861"
       gradientUnits="userSpaceOnUse"
       gradientTransform="translate(153.57857,72.42625)"
       x1="234.73087"
       y1="657.07196"
       x2="-11.343872"
       y2="424.08624" />
    <filter
       inkscape:collect="always"
       id="filter3911"
       x="-0.12"
       width="1.24"
       y="-0.12"
       height="1.24">
      <feGaussianBlur
         inkscape:collect="always"
         stdDeviation="9.11875"
         id="feGaussianBlur3913" />
    </filter>
  </defs>
  <sodipodi:namedview
     id="base"
     pagecolor="#ffffff"
     bordercolor="#666666"
     borderopacity="1.0"
     inkscape:pageopacity="0.0"
     inkscape:pageshadow="2"
     inkscape:zoom="1.1459933"
     inkscape:cx="433.62711"
     inkscape:cy="219.45691"
     inkscape:document-units="px"
     inkscape:current-layer="layer1"
     showgrid="false"
     inkscape:window-width="1366"
     inkscape:window-height="746"
     inkscape:window-x="-32000"
     inkscape:window-y="-32000"
     inkscape:window-maximized="1" />
  <metadata
     id="metadata7">
    <rdf:RDF>
      <cc:Work
         rdf:about="">
        <dc:format>image/svg+xml</dc:format>
        <dc:type
           rdf:resource="http://purl.org/dc/dcmitype/StillImage" />
        <dc:title></dc:title>
      </cc:Work>
    </rdf:RDF>
  </metadata>
  <g
     inkscape:label="レイヤー 1"
     inkscape:groupmode="layer"
     id="layer1"
     transform="translate(0,-308.2677)">
    <path
       style="fill:#999999;fill-rule:evenodd;stroke:none;filter:url(#filter3843)"
       d="m 214.30324,372.70897 0,54.08874 -132.699418,0 0,36.43034 132.699418,0 0,54.12056 44.01966,-36.17582 44.01968,-36.14401 -44.01968,-36.17582 -44.01966,-36.14399 z"
       id="rect2987-6"
       inkscape:connector-curvature="0"
       inkscape:export-filename="C:\Users\yosihara\Desktop\rect2987.png"
       inkscape:export-xdpi="90"
       inkscape:export-ydpi="90" />
    <path
       style="fill:url(#linearGradient3863);fill-opacity:1;fill-rule:evenodd;stroke:#000000;stroke-width:0.88978988px;stroke-linecap:butt;stroke-linejoin:miter;stroke-opacity:1"
       d="m 210.88763,357.33606 0,54.08874 -132.699428,0 0,36.43034 132.699428,0 0,54.12056 44.01966,-36.17582 44.01968,-36.14401 -44.01968,-36.17582 -44.01966,-36.14399 z"
       id="rect2987"
       inkscape:connector-curvature="0"
       inkscape:export-xdpi="90"
       inkscape:export-ydpi="90" />
    <path
       style="fill:#666666;stroke:none;filter:url(#filter3883)"
       d="m 476.44257,365.9751 c -52.8162,0 -95.63318,42.81699 -95.63318,95.63318 0,52.81621 42.81698,95.63319 95.63318,95.63319 52.81621,0 95.63319,-42.81698 95.63319,-95.63319 0,-52.81619 -42.81698,-95.63318 -95.63319,-95.63318 z m 0,14.35282 c 44.89378,0 81.28037,36.38659 81.28037,81.28036 0,19.46053 -6.84467,37.32723 -18.24822,51.31983 L 423.18812,400.19703 c 14.26835,-12.37682 32.88557,-19.86911 53.25445,-19.86911 z m -63.05829,29.96053 116.31275,112.73108 c -14.26255,12.37713 -32.8853,19.86912 -53.25446,19.86912 -44.89377,0 -81.30651,-36.38659 -81.30651,-81.28037 0,-19.46053 6.8391,-37.32723 18.24822,-51.31983 z"
       id="path2995-4"
       inkscape:connector-curvature="0"
       inkscape:export-filename="C:\Users\yosihara\Desktop\stop.png"
       inkscape:export-xdpi="90"
       inkscape:export-ydpi="90" />
    <path
       style="fill:url(#linearGradient3893);fill-opacity:1;stroke:#000000;stroke-width:0.83659428;stroke-opacity:1"
       d="m 472.89044,355.06124 c -52.8162,0 -95.63318,42.81699 -95.63318,95.63318 0,52.81621 42.81698,95.63319 95.63318,95.63319 52.81621,0 95.63319,-42.81698 95.63319,-95.63319 0,-52.81619 -42.81698,-95.63318 -95.63319,-95.63318 z m 0,14.35282 c 44.89378,0 81.28037,36.38659 81.28037,81.28036 0,19.46053 -6.84467,37.32723 -18.24822,51.31983 L 419.63599,389.28317 c 14.26835,-12.37682 32.88557,-19.86911 53.25445,-19.86911 z m -63.05829,29.96053 116.31275,112.73108 c -14.26255,12.37713 -32.8853,19.86912 -53.25446,19.86912 -44.89377,0 -81.30651,-36.38659 -81.30651,-81.28037 0,-19.46053 6.8391,-37.32723 18.24822,-51.31983 z"
       id="path2995"
       inkscape:connector-curvature="0"
       inkscape:export-filename="C:\Users\yosihara\Desktop\stop.png"
       inkscape:export-xdpi="90"
       inkscape:export-ydpi="90" />
    <rect
       style="fill:#000000;stroke:none"
       id="rect3863"
       width="693.72131"
       height="223.38699"
       x="128.27299"
       y="942.41388" />
    <g
       id="g3923"
       inkscape:export-filename="C:\Users\yosihara\Desktop\start.png"
       inkscape:export-xdpi="90"
       inkscape:export-ydpi="90">
      <path
         inkscape:export-ydpi="90"
         inkscape:export-xdpi="90"
         inkscape:connector-curvature="0"
         id="rect2987-9-2"
         d="m 277.13084,720.00594 0,54.08874 -132.69944,0 0,36.43034 132.69944,0 0,54.12056 44.01966,-36.17582 44.01968,-36.14401 -44.01968,-36.17582 -44.01966,-36.14399 z"
         style="fill:#ffffff;fill-opacity:1;fill-rule:evenodd;stroke:none;filter:url(#filter3853)" />
      <path
         inkscape:export-ydpi="90"
         inkscape:export-xdpi="90"
         inkscape:connector-curvature="0"
         id="rect2987-9"
         d="m 277.13083,720.00594 0,54.08874 -132.69942,0 0,36.43034 132.69942,0 0,54.12056 44.01966,-36.17582 44.01968,-36.14401 -44.01968,-36.17582 -44.01966,-36.14399 z"
         style="fill:#000000;fill-opacity:1;fill-rule:evenodd;stroke:#979797;stroke-width:4;stroke-linecap:butt;stroke-linejoin:miter;stroke-opacity:1" />
    </g>
    <g
       id="g3915"
       transform="translate(-43.630273,-50.611116)"
       inkscape:export-filename="C:\Users\yosihara\Desktop\stop.png"
       inkscape:export-xdpi="90"
       inkscape:export-ydpi="90">
      <path
         inkscape:connector-curvature="0"
         id="path3865-2"
         d="m 579.41002,753.49458 c -50.36134,0 -91.1875,40.82616 -91.1875,91.1875 0,50.36134 40.82616,91.1875 91.1875,91.1875 50.36134,0 91.1875,-40.82616 91.1875,-91.1875 0,-50.36134 -40.82616,-91.1875 -91.1875,-91.1875 z m 0,27.5 c 34.15348,0 61.84375,28.50685 61.84375,63.6875 0,12.4475 -3.47608,24.06043 -9.46875,33.875 l -86.78125,-86.78125 c 9.84084,-6.80268 21.66348,-10.78125 34.40625,-10.78125 z m -52.375,29.8125 86.8125,86.8125 c -9.84508,6.81721 -21.68546,10.78125 -34.4375,10.78125 -34.15348,0 -61.84375,-28.5381 -61.84375,-63.71875 0,-12.4475 3.47608,-24.06549 9.46875,-33.875 z"
         style="fill:#ffffff;stroke:none;filter:url(#filter3911)" />
      <path
         inkscape:connector-curvature="0"
         id="path3865"
         d="m 579.41002,753.49458 c -50.36134,0 -91.1875,40.82616 -91.1875,91.1875 0,50.36134 40.82616,91.1875 91.1875,91.1875 50.36134,0 91.1875,-40.82616 91.1875,-91.1875 0,-50.36134 -40.82616,-91.1875 -91.1875,-91.1875 z m 0,27.5 c 34.15348,0 61.84375,28.50685 61.84375,63.6875 0,12.4475 -3.47608,24.06043 -9.46875,33.875 l -86.78125,-86.78125 c 9.84084,-6.80268 21.66348,-10.78125 34.40625,-10.78125 z m -52.375,29.8125 86.8125,86.8125 c -9.84508,6.81721 -21.68546,10.78125 -34.4375,10.78125 -34.15348,0 -61.84375,-28.5381 -61.84375,-63.71875 0,-12.4475 3.47608,-24.06549 9.46875,-33.875 z"
         style="fill:#000000;stroke:#979797;stroke-width:4;stroke-opacity:1" />
    </g>
  </g>
</svg>
